<svg id="Layer_1" data-name="Layer 1" xmlns="http://www.w3.org/2000/svg" viewBox="0 0 944.07 219.11"><defs><style>.cls-1{fill:none;stroke:#737174;stroke-miterlimit:10;}.cls-2,.cls-3{fill:#624a32;}.cls-3{font-size:111.18px;font-family:DINCondensed-Bold, DIN Condensed;font-weight:700;letter-spacing:0.13em;}.cls-4{fill:#737174;}</style></defs><g id="Logo"><path class="cls-1" d="M172.47,426.47s-15.77-26.58-57.75-24.21C70.22,404.77,86.15,405.6,62,408l5.13-7.36s5.26.15,38.73-2.28C139.11,395.94,168,410.2,172.47,426.47Z" transform="translate(-34.7 -259.22)"/><path class="cls-1" d="M172.59,422.43s-8.83-25-52.85-26-31.19.89-52.11,1.88c0,0,18.73-19,23.19-25.3,0,0,6.34,1.67,32.86-1s46.95,8.92,49.79,18.15Z" transform="translate(-34.7 -259.22)"/><path class="cls-1" d="M293.78,405.78s-45.1-5-68.47-3.93-42.06,12-49.64,20.67c0,0,10.2-16.45,33.36-21.58s66.77,1.82,81.65,1.27C290.68,402.21,290.15,404.21,293.78,405.78Z" transform="translate(-34.7 -259.22)"/><path class="cls-1" d="M175.72,420.72s7-17.77,36.58-23.29,77.07,2.11,77.07,2.11-21.92-22.61-23.75-26.71c0,0-3-.14-14.07-1.48-5.8-.7-17.62-2.59-24.13-3.11-22.1-1.77-44.7-.65-50.85,21.48Z" transform="translate(-34.7 -259.22)"/><path class="cls-1" d="M294.61,407.61a1.42,1.42,0,0,0,0,.2C294.85,407.72,294.61,407.61,294.61,407.61Z" transform="translate(-34.7 -259.22)"/><path class="cls-1" d="M319.35,441.13c-.09-.79-14.64-13-14.64-13l-3.77-6.74a229.52,229.52,0,0,1-38.84-4.42c-20.47-4.22-46.11-6.09-53.06-2.49,0,0,2.65-6.35,39.58-1.25s51.82,5.37,51.82,5.37-5-7-5.79-10.76c-.53.25-4.09.4-23.06-1.71-26.19-2.91-85.54-5.12-97.09,22.15a36.69,36.69,0,0,1,8,1.79c3,1.15,4.74,3.1,6.13,4.14,0,0,.19,6.81-12.86,6.07s-13.42-5.62-13.12-5.91a34.4,34.4,0,0,1,5-3.89c1.62-1,2.9-.79,4.19-1.55,0,0-10.22-21.17-43.33-24.49s-49.44,6.24-66.66,5.24L55,419.14s-18.63,17.72-19.56,19.12.92,2.15.92,2.15,34.09-1.32,46.47-1.68,74.53-4.55,76.94-3.37c0,0,1.37,7.46,15.27,7.42s14.64-3.95,16.61-6.34l126.73,6.47C318.74,442.92,319.44,441.92,319.35,441.13Zm-279-4S51,425.36,50.16,426.48s-5.23,8.45-5.23,8.45c9.33.77,57.28-2.62,68.9-3.14,17.23-.76,40.73.23,40.73.23C153,433.92,40.38,437.12,40.38,437.12ZM84.6,426.43a112.29,112.29,0,0,1,30.11-5.59c16.5-.67,36.63,6.23,36.63,6.23S119.93,417.81,84.6,426.43Zm38.33-7.16c-24.26-.72-55.13,7.62-55.13,7.62a165.15,165.15,0,0,1,38.32-8.75c21-2.1,44.76,1.06,53.6,8C159.72,426.12,147.2,420,122.93,419.27Zm110.46,1.31a233.57,233.57,0,0,1,51.71,9c-8.48-.24-19.05-4.93-42.76-7a129.75,129.75,0,0,0-43.4,3.75S205.25,419.06,233.39,420.58Zm-36.68,12.77c11.28-.93,52.48.72,59,1.45s55.61,4,54.5,2.6-3-5-2.66-4.84,7,7.45,7,7.45C313,440.69,196.71,433.35,196.71,433.35Z" transform="translate(-34.7 -259.22)"/><path class="cls-2" d="M193.46,378.85s-5.63,3.58-5.94,6.55a33.1,33.1,0,0,0,0-6.55s.62,0,3-5.44,13.3-28,17.61-33.41c0,0-3.23-7.81,0-15.44,0,0,.12,3.07.91,2.7,0,0,0-6.53,3.19-11,0,0-.08,1.52.65,2s-.73-5.3,7.77-12.49c0,0-4.86,10.45-3.85,16.48,0,0,5.08-25.53,18.88-33.9a15.41,15.41,0,0,1-.38,1.52c-.29.95,5.9-9.84,16.75-14.17,0,0-7.76,9.84-7.36,14.41,0,0,6.69-13.89,15.44-20,0,0-7.13,6.76-7.7,11.51,0,0,24.27-33.42,51.28-18.52,0,0-1.2,12.11-24.3,22.54,0,0,1.52.8,7.25-1.59,0,0-6.77,7.88-29.23,12.9,0,0,7,5.1,27.64-8.2,0,0-6.37,10.19-22.07,17.68a11.33,11.33,0,0,0,6.85-1.43s-4.62,5.87-14.57,10.07a18.65,18.65,0,0,0,8.68-3.46s-9.8,14.82-35.37,15.77c0,0,11.63,2.15,20.79-3.26,0,0-5.18,5.41-21.43,8.84,0,0,2.15,2.39,11.23-2.07,0,0-8.58,12.89-26.79,10.25,0,0,17.6-25.72,28.52-36.32s34.92-30.72,49.45-36.26c0,0-25.1,8.35-49.26,32.28C219.44,322.21,198.83,358.13,193.46,378.85Z" transform="translate(-34.7 -259.22)"/><text class="cls-3" transform="translate(370.16 165.75)">BOOK SHELF</text><path class="cls-4" d="M751.47,465.11c0,9.42-3.34,13.22-8.08,13.22-5.65,0-7.89-6-7.89-12.84s2.72-12.73,8.25-12.73C749.77,452.76,751.47,459.38,751.47,465.11Zm-10.91.44c0,5.66,1.06,8.56,3,8.56s2.84-3.72,2.84-8.77c0-4.41-.67-8.36-2.87-8.36C741.62,457,740.56,460.19,740.56,465.55Z" transform="translate(-34.7 -259.22)"/><path class="cls-4" d="M754.41,453.06h10.86v4.21h-6v6.42h5.63v4h-5.63V478h-4.87Z" transform="translate(-34.7 -259.22)"/><path class="cls-4" d="M778.48,472.33,777.39,478h-4.72l5.43-25h5.82l4.85,25H784L783,472.33Zm4.07-3.77-.84-5.23c-.24-1.51-.57-4-.82-5.67h-.09c-.26,1.65-.63,4.24-.89,5.68l-.92,5.22Z" transform="translate(-34.7 -259.22)"/><path class="cls-4" d="M797.1,453.43a22.66,22.66,0,0,1,4.94-.49c3.14,0,5.34.74,6.94,2.23,2.14,1.93,3.24,5.23,3.24,10.07,0,5.06-1.3,8.64-3.47,10.58-1.7,1.61-4.16,2.42-7.63,2.42a33.16,33.16,0,0,1-4-.28Zm4.84,20.75a3.21,3.21,0,0,0,.87.08c2.35,0,4.38-2.29,4.38-9.18,0-5.14-1.33-8.25-4.28-8.25a3.08,3.08,0,0,0-1,.12Z" transform="translate(-34.7 -259.22)"/><path class="cls-4" d="M815.15,453.43a27.15,27.15,0,0,1,5.3-.49c2.66,0,5,.39,6.66,1.86a6.42,6.42,0,0,1,2,5.2,6.62,6.62,0,0,1-3.85,6.24v.07c1.7.69,2.56,2.26,3,5a40.45,40.45,0,0,0,1.59,6.77H824.8a32.92,32.92,0,0,1-1.25-6c-.43-3.11-1.22-4-2.83-4H820v10h-4.84Zm4.84,10.9h.88c2.11,0,3.31-1.72,3.31-3.89s-.84-3.64-3-3.7a3.6,3.6,0,0,0-1.18.15Z" transform="translate(-34.7 -259.22)"/><path class="cls-4" d="M843,467.05h-5.69v6.77h6.42V478H832.42v-25h10.87v4.21h-6V463H843Z" transform="translate(-34.7 -259.22)"/><path class="cls-4" d="M850.82,472.33,849.73,478H845l5.42-25h5.82l4.85,25h-4.73l-1.06-5.71Zm4.07-3.77-.83-5.23c-.24-1.51-.58-4-.82-5.67h-.09c-.27,1.65-.64,4.24-.9,5.68l-.92,5.22Z" transform="translate(-34.7 -259.22)"/><path class="cls-4" d="M878.89,469.3c-.13-2.39-.28-5.59-.23-8.28h-.1c-.44,2.68-1.11,5.75-1.58,7.69l-2.17,8.92h-3.44l-2.08-8.78c-.48-2-1.14-5.12-1.52-7.83h-.09c-.07,2.72-.25,5.87-.38,8.34l-.42,8.68h-4.17l1.8-25h5.12l2,9c.69,3.16,1.32,5.92,1.77,8.75h.08c.38-2.78.93-5.59,1.59-8.75l2-9h5.13l1.52,25h-4.35Z" transform="translate(-34.7 -259.22)"/><path class="cls-4" d="M897.64,467.05H892v6.77h6.42V478H887.08v-25H898v4.21h-6V463h5.69Z" transform="translate(-34.7 -259.22)"/><path class="cls-4" d="M901.54,453.43a27.07,27.07,0,0,1,5.3-.49c2.66,0,5,.39,6.66,1.86a6.45,6.45,0,0,1,2,5.2,6.64,6.64,0,0,1-3.85,6.24v.07c1.69.69,2.56,2.26,3,5a41.25,41.25,0,0,0,1.6,6.77h-5.07a32.65,32.65,0,0,1-1.26-6c-.42-3.11-1.21-4-2.83-4h-.72v10h-4.84Zm4.84,10.9h.88c2.11,0,3.31-1.72,3.31-3.89s-.85-3.64-3-3.7a3.54,3.54,0,0,0-1.17.15Z" transform="translate(-34.7 -259.22)"/></g></svg>