<svg id="Layer_1" data-name="Layer 1" xmlns="http://www.w3.org/2000/svg" viewBox="0 0 661.88 127.94"><defs><style>.cls-1{fill:#cdb373;}</style></defs><path id="venzel_bottom" class="cls-1" d="M640.84,653.45c-21.76-6.7-33.08,3-37,7.57a14,14,0,1,0,12.93,1.25c33.27-7.68,48.79,45.23,15,62.53-34,17.39-65,14.36-140-44.45s-123.73-34.41-123.73-34.41c-21.57-10.29-34.58-9.65-37.13-9.39-2.56-.26-15.57-.9-37.13,9.39,0,0-48.73-24.4-123.73,34.41s-106,61.84-140,44.45c-33.84-17.3-18.32-70.21,15-62.53A14,14,0,1,0,58,661c-3.88-4.53-15.21-14.27-37-7.57C-6.73,662-2.22,700,7.5,713.85s50.85,47.24,112.74,10.48,99.91-83.46,162.42-74.3c0,0-21,9.46-43.73,32.93s-79.18,56.92-113.57,51.62c0,0,25,10.43,61.89-6.72s78.65-68.07,110.11-72.93c0,0,24.08,10.43,29.06,27.39,0,0-22.61,23-2.51,67,0,0-9.23,10.84-25.75,1.74s-16.76-33.75-13.4-39.73-27.53,20.34-2.88,45.24c0,0,11.87,10.85,32.42,6.95a27.62,27.62,0,0,0,16.64-8.37,27.62,27.62,0,0,0,16.64,8.37c20.54,3.9,32.41-6.95,32.41-6.95,24.66-24.9-6.22-51.23-2.87-45.24s3.11,30.64-13.4,39.73S338,749.33,338,749.33c20.1-44-2.52-67-2.52-67,5-17,29.07-27.39,29.07-27.39,31.46,4.86,73.21,55.77,110.1,72.93s61.9,6.72,61.9,6.72C502.13,739.88,445.65,706.43,423,683S379.21,650,379.21,650c62.52-9.16,100.55,37.55,162.43,74.3s103,3.36,112.74-10.48S668.61,662,640.84,653.45Zm-309.9,35.88c15.13,26,2.65,47.9,0,52C328.28,737.23,315.8,715.37,330.94,689.33Zm26.3-38.72c-13,2.48-24,16.19-26.3,19.33-2.35-3.14-13.26-16.85-26.31-19.33,0,0,7.16-4.77,26.31-6.31C350.09,645.84,357.24,650.61,357.24,650.61Z" transform="translate(0 -636.44)"/></svg>