<svg id="Layer_1" data-name="Layer 1" xmlns="http://www.w3.org/2000/svg" viewBox="0 0 661.88 127.94"><defs><style>.cls-1{fill:#cdb373;}</style></defs><path id="venzel_upper" class="cls-1" d="M1885.73,50.53C1876,36.69,1834.88,3.29,1773,40s-99.92,83.47-162.43,74.31c0,0,21-9.46,43.74-32.94s79.18-56.92,113.57-51.61c0,0-25-10.44-61.9,6.72s-78.64,68.06-110.1,72.92c0,0-24.08-10.43-29.07-27.39,0,0,22.62-23,2.51-67,0,0,9.24-10.84,25.75-1.74s16.76,33.75,13.41,39.74,27.53-20.35,2.87-45.25c0,0-11.87-10.84-32.41-6.94a27.63,27.63,0,0,0-16.64,8.36A27.63,27.63,0,0,0,1545.66.85c-20.55-3.9-32.42,6.94-32.42,6.94-24.66,24.9,6.23,51.23,2.87,45.25S1513,22.4,1529.52,13.3,1555.27,15,1555.27,15c-20.1,44,2.51,67,2.51,67-5,17-29.07,27.39-29.07,27.39-31.45-4.86-73.21-55.76-110.1-72.92s-61.9-6.72-61.9-6.72c34.4-5.31,90.87,28.14,113.58,51.61S1514,114.35,1514,114.35c-62.51,9.16-100.54-37.55-162.43-74.31s-103-3.35-112.73,10.49-14.23,51.84,13.53,60.4c21.76,6.7,33.09-3.05,37-7.57a14,14,0,1,0-12.94-1.25c-33.27,7.68-48.79-45.23-15-62.53,34-17.39,65-14.37,140,44.44s123.72,34.41,123.72,34.41c21.57,10.3,34.58,9.65,37.14,9.39,2.55.26,15.56.91,37.13-9.39,0,0,48.72,24.4,123.72-34.41s106-61.83,140-44.44c33.83,17.3,18.31,70.21-15,62.53a14,14,0,1,0-12.93,1.25c3.88,4.52,15.2,14.27,37,7.57C1900,102.37,1895.46,64.37,1885.73,50.53ZM1562.3,23c2.65,4.11,15.13,26,0,52C1547.16,49,1559.64,27.14,1562.3,23Zm0,97c-19.16-1.53-26.31-6.3-26.31-6.3,13-2.48,24-16.2,26.31-19.33,2.34,3.13,13.26,16.85,26.3,19.33C1588.6,113.77,1581.45,118.54,1562.3,120.07Z" transform="translate(-1231.36 0)"/></svg>